:SAMPLES-PER-SECOND 30
:FULLY-SPECIFIED
:DEGREES
309
root  -4.81591 40.947 -0.481453 5.82562 -80.035 -1.4942
RightUpLeg  0.36784 -1.36733 -0.398215
RightLeg  -5.19491 -31.6895 3.90783
RightFoot  0.865985 -0.17168 1.6612
RightToes  -3.11842e-008 1.75238e-005 3.56266e-009
Spine  1.46908 -1.10396 -6.76788
Spine1  -4.60893 -1.5345 4.58691
HEad  3.63427 -1.57034 4.21615
LeftShoulder1  2.75561 -6.87898 -20.1086
LeftArm  -16.6021 -29.5022 -40.1461
LeftForeArm  105.411 -71.9742 -140.705
LeftHand  -0.457028 -2.46419 6.96999
RightShoulder  2.35836 6.0998 18.0428
RightArm  -14.3827 34.2951 29.3286
RightForeArm  95.6903 67.2527 148.629
RightHand  -1.31027 8.24762 -11.4701
LeftUpLeg  -3.8068 0.962755 4.00757
LeftLeg  -0.95399 4.57204 -0.24861
LeftFoot  1.34861 0.405477 -3.71906
LeftToes  4.78904e-008 1.4679e-008 1.35657e-009
310
root  -4.6039 40.9681 -0.553597 6.72339 -79.4828 -1.66736
RightUpLeg  -0.588766 -1.30269 -0.357362
RightLeg  -5.64163 -32.2941 4.38134
RightFoot  1.46653 -0.137278 1.30917
RightToes  -3.11842e-008 1.75238e-005 3.56266e-009
Spine  2.91392 -1.09336 -6.142
Spine1  -5.38164 -1.50089 3.90246
HEad  1.52563 -1.27115 4.21504
LeftShoulder1  2.63206 -6.82555 -18.9454
LeftArm  -26.1981 -34.4698 -35.7132
LeftForeArm  73.5936 -77.5693 -109.865
LeftHand  -0.424148 -2.35434 6.61743
RightShoulder  2.07878 5.76243 15.7027
RightArm  -24.5539 36.6243 23.3806
RightForeArm  72.8092 74.8679 126.684
RightHand  -0.717705 7.02256 -6.8948
LeftUpLeg  -4.72609 0.765261 4.07019
LeftLeg  -1.69804 4.36032 -0.249781
LeftFoot  2.34166 0.430567 -3.7082
LeftToes  4.78904e-008 1.4679e-008 1.35657e-009
311
root  -4.35544 40.9852 -0.62511 8.02747 -78.9624 -2.10815
RightUpLeg  -1.55451 -1.0778 -0.230391
RightLeg  -6.61761 -33.0212 5.04223
RightFoot  2.32884 -0.117073 1.11512
RightToes  -3.11842e-008 1.75238e-005 3.56266e-009
Spine  4.30554 -0.904555 -4.63243
Spine1  -5.7442 -1.14298 2.0234
HEad  -1.53512 -1.85653 4.29493
LeftShoulder1  2.26141 -6.29156 -16.378
LeftArm  -36.8844 -39.4345 -32.8394
LeftForeArm  23.5994 -76.1967 -56.4655
LeftHand  -0.131661 -3.54253 1.94434
RightShoulder  1.70662 4.93704 13.2898
RightArm  -36.2702 37.4618 17.5044
RightForeArm  22.8864 77.3975 76.3759
RightHand  0.0887687 6.12612 0.468424
LeftUpLeg  -5.83437 0.502224 4.14022
LeftLeg  -2.47342 4.28526 -0.193485
LeftFoot  3.41028 0.449901 -3.63516
LeftToes  4.78904e-008 1.4679e-008 1.35657e-009
312
root  -4.10894 40.9938 -0.713069 8.48657 -78.8613 -1.7226
RightUpLeg  -2.27969 -0.902486 -0.261709
RightLeg  -8.15009 -33.2655 5.95158
RightFoot  3.24998 -0.0555548 0.60312
RightToes  -3.11842e-008 1.75238e-005 3.56266e-009
Spine  5.37842 -0.502753 -3.74941
Spine1  -5.45008 -0.609037 0.666187
HEad  -3.00999 -2.23014 3.83697
LeftShoulder1  2.00179 -5.90961 -14.3657
LeftArm  -49.116 -43.8186 -28.4549
LeftForeArm  -3.17152 -66.6334 -28.1862
LeftHand  -0.104578 -2.94556 1.68749
RightShoulder  1.34895 3.87562 11.0852
RightArm  -46.9593 38.1686 11.7624
RightForeArm  -18.5489 68.963 34.3639
RightHand  0.123498 5.09891 1.05012
LeftUpLeg  -6.71764 0.277818 4.1508
LeftLeg  -3.47724 4.54098 -0.288097
LeftFoot  4.48313 0.493306 -3.74395
LeftToes  4.78904e-008 1.4679e-008 1.35657e-009
313
root  -3.87457 40.9921 -0.806944 9.36609 -78.7143 -1.76575
RightUpLeg  -3.8329 -0.952627 -0.314616
RightLeg  -7.55278 -33.3643 5.9479
RightFoot  3.23123 -0.0223725 0.349386
RightToes  -3.11842e-008 1.75238e-005 3.56266e-009
Spine  5.89421 -0.306309 -2.88377
Spine1  -4.31155 -0.273049 -0.479114
HEad  -4.09242 -2.05516 3.58271
LeftShoulder1  1.71489 -5.31202 -12.3902
LeftArm  -63.196 -46.8573 -22.9663
LeftForeArm  -13.7218 -54.4479 -16.8537
LeftHand  -0.0789311 -1.5204 1.46544
RightShoulder  0.970022 2.47231 8.89854
RightArm  -56.1522 38.8083 7.15972
RightForeArm  -31.9691 55.2116 18.4659
RightHand  -0.143523 4.68925 -1.94814
LeftUpLeg  -7.73892 0.269126 4.319
LeftLeg  -4.17744 4.52508 -0.454946
LeftFoot  5.29197 0.55402 -4.01042
LeftToes  4.78904e-008 1.4679e-008 1.35657e-009
314
root  -3.66671 40.9879 -0.888462 10.1456 -78.3629 -1.96716
RightUpLeg  -4.42292 -0.798914 -0.238221
RightLeg  -8.50537 -33.783 6.59925
RightFoot  3.78868 0.0225308 0.0248291
RightToes  -3.11842e-008 1.75238e-005 3.56266e-009
Spine  6.73316 -0.357257 -2.3317
Spine1  -3.79855 -0.251196 -1.08683
HEad  -3.6993 -1.57952 3.033
LeftShoulder1  1.51484 -4.88284 -10.8327
LeftArm  -77.8814 -47.3738 -17.1101
LeftForeArm  -14.8759 -41.4493 -10.7306
LeftHand  -0.07686 -0.886351 1.53229
RightShoulder  0.863792 2.27685 7.37923
RightArm  -64.4562 37.5687 3.08083
RightForeArm  -33.759 40.3224 11.1945
RightHand  -0.174838 4.23581 -2.37811
LeftUpLeg  -8.57076 0.204267 4.4409
LeftLeg  -4.66329 4.36056 -0.485555
LeftFoot  6.03195 0.5864 -4.0783
LeftToes  4.78904e-008 1.4679e-008 1.35657e-009
315
root  -3.50883 40.977 -0.97433 9.98779 -78.3057 -1.55859
RightUpLeg  -4.96775 -0.579083 -0.161105
RightLeg  -8.58128 -34.1381 6.51603
RightFoot  3.99337 0.0545229 -0.202376
RightToes  -3.11842e-008 1.75238e-005 3.56266e-009
Spine  7.72743 -0.342498 -2.31677
Spine1  -3.25614 -0.250056 -1.14195
HEad  -2.55283 -1.07293 2.03308
LeftShoulder1  1.23351 -3.70403 -9.76287
LeftArm  -92.7554 -46.6706 -12.7354
LeftForeArm  -12.4254 -29.4964 -7.19234
LeftHand  -0.0977636 0.607695 2.43923
RightShoulder  0.713418 1.52997 6.53801
RightArm  -69.8762 36.0948 0.855085
RightForeArm  -31.2966 27.5754 7.12422
RightHand  -0.172167 3.49262 -2.51522
LeftUpLeg  -8.90758 0.0941873 4.44633
LeftLeg  -5.14387 4.46007 -0.518027
LeftFoot  6.64826 0.597344 -4.02952
LeftToes  4.78904e-008 1.4679e-008 1.35657e-009
316
root  -3.41938 40.9639 -1.04244 9.69318 -78.2217 -1.04047
RightUpLeg  -5.53458 -0.666356 -0.21183
RightLeg  -8.17444 -34.2212 6.38857
RightFoot  3.92186 0.0851793 -0.435225
RightToes  -3.11842e-008 1.75238e-005 3.56266e-009
Spine  7.46098 -0.437784 -2.65256
Spine1  -1.35708 -0.390554 -0.871508
HEad  -1.30907 -1.0056 1.05708
LeftShoulder1  0.9857 -2.53604 -8.91627
LeftArm  -97.5203 -43.7203 -11.179
LeftForeArm  -15.2634 -21.2539 -2.99263
LeftHand  -0.187086 1.3923 4.49333
RightShoulder  0.634089 0.942291 6.64641
RightArm  -70.1548 34.0513 1.22257
RightForeArm  -30.2289 19.4536 3.24939
RightHand  -0.229536 2.5882 -3.53737
LeftUpLeg  -9.15849 0.0595924 4.45059
LeftLeg  -5.50489 4.44349 -0.621909
LeftFoot  7.08195 0.584674 -3.87086
LeftToes  4.78904e-008 1.4679e-008 1.35657e-009
317
root  -3.40885 40.9495 -1.09279 9.63708 -77.9491 -0.894531
RightUpLeg  -5.87025 -0.666987 -0.166801
RightLeg  -7.6148 -34.4833 6.09574
RightFoot  3.72281 0.0719301 -0.335789
RightToes  -3.11842e-008 1.75238e-005 3.56266e-009
Spine  6.5174 -0.62474 -3.05387
Spine1  1.32171 -0.670676 -0.282544
HEad  -0.908682 -0.586547 -0.242073
LeftShoulder1  0.921453 -1.98706 -9.39934
LeftArm  -77.3206 -40.4936 -10.2317
LeftForeArm  -36.08 -13.9762 7.23236
LeftHand  -0.401691 -0.486332 7.60127
RightShoulder  0.625175 0.64476 7.47592
RightArm  -64.2447 30.8769 3.34271
RightForeArm  -34.2364 16.3392 -0.128731
RightHand  -0.243064 2.37584 -3.83121
LeftUpLeg  -9.2396 -0.00747807 4.46324
LeftLeg  -5.69739 4.27984 -0.591425
LeftFoot  7.17338 0.564314 -3.73008
LeftToes  4.78904e-008 1.4679e-008 1.35657e-009
318
root  -3.43422 40.946 -1.14489 9.34814 -77.6446 -0.707397
RightUpLeg  -5.86695 -0.625576 -0.0915706
RightLeg  -7.24249 -34.8517 5.87026
RightFoot  3.48671 0.0601667 -0.279648
RightToes  -3.11842e-008 1.75238e-005 3.56266e-009
Spine  6.37248 -0.739333 -3.43707
Spine1  2.23688 -0.838793 -0.0539951
HEad  -0.389944 -0.291227 -1.28078
LeftShoulder1  1.0272 -2.44556 -9.92596
LeftArm  -62.972 -36.1379 -11.6569
LeftForeArm  -45.2135 -6.53701 10.301
LeftHand  -0.0793799 2.44156 3.08443
RightShoulder  0.87993 1.60566 9.97205
RightArm  -59.1976 25.5907 4.49974
RightForeArm  -35.8241 16.062 0.599407
RightHand  -0.283631 2.12829 -4.56066
LeftUpLeg  -9.20804 0.0258362 4.49355
LeftLeg  -5.59452 3.93922 -0.550931
LeftFoot  7.17187 0.572186 -3.77869
LeftToes  4.78904e-008 1.4679e-008 1.35657e-009
319
root  -3.48321 40.9475 -1.18529 8.83649 -77.3791 -0.503967
RightUpLeg  -5.47618 -0.6859 -0.0438383
RightLeg  -7.18099 -35.1166 5.89167
RightFoot  3.24216 0.0834179 -0.478356
RightToes  -3.11842e-008 1.75238e-005 3.56266e-009
Spine  5.38965 -0.870696 -4.27491
Spine1  4.79994 -1.15011 0.852121
HEad  -1.44633 0.0942587 -2.16124
LeftShoulder1  1.19945 -2.93579 -11.4701
LeftArm  -58.082 -31.3303 -12.2315
LeftForeArm  -46.8068 -2.38288 8.60803
LeftHand  -0.134581 2.30365 4.58614
RightShoulder  1.07708 2.13917 12.0512
RightArm  -55.5745 21.9916 5.67287
RightForeArm  -36.5474 16.1173 1.51349
RightHand  -0.216 1.85007 -3.62963
LeftUpLeg  -8.98535 0.123491 4.51578
LeftLeg  -5.32813 3.54261 -0.51613
LeftFoot  7.07878 0.599031 -3.96003
LeftToes  4.78904e-008 1.4679e-008 1.35657e-009
320
root  -3.53924 40.9406 -1.22657 8.65271 -77.223 -0.676453
RightUpLeg  -4.97775 -0.624178 0.107968
RightLeg  -7.27535 -35.33 5.91742
RightFoot  3.10695 0.0916767 -0.555439
RightToes  -3.11842e-008 1.75238e-005 3.56266e-009
Spine  4.59834 -1.15444 -4.70715
Spine1  6.67117 -1.51686 1.18767
HEad  -2.25625 0.461804 -2.65895
LeftShoulder1  1.33181 -3.13528 -13.0256
LeftArm  -56.4264 -28.7715 -13.2843
LeftForeArm  -48.5005 1.18484 8.79759
LeftHand  -0.0777749 3.01753 3.19334
RightShoulder  1.2878 2.74783 13.6955
RightArm  -52.89 20.6226 7.49449
RightForeArm  -36.2362 14.6917 1.07033
RightHand  -0.135928 1.76592 -2.36579
LeftUpLeg  -8.74435 0.326089 4.6287
LeftLeg  -4.92085 3.11431 -0.510298
LeftFoot  6.76312 0.587301 -3.9444
LeftToes  4.78904e-008 1.4679e-008 1.35657e-009
321
root  -3.62304 40.9447 -1.26113 8.52368 -77.3924 -0.942078
RightUpLeg  -4.45896 -0.559827 0.265831
RightLeg  -7.21559 -35.1983 5.82768
RightFoot  2.96441 0.0873177 -0.534056
RightToes  -3.11842e-008 1.75238e-005 3.56266e-009
Spine  3.25248 -1.27311 -5.27108
Spine1  8.7925 -1.7308 1.67926
HEad  -3.20594 0.806251 -3.01185
LeftShoulder1  1.54873 -3.7535 -14.4615
LeftArm  -55.5574 -26.4586 -14.8849
LeftForeArm  -52.8462 1.5833 9.28654
LeftHand  -0.0928323 3.58887 4.74363
RightShoulder  1.5689 3.69188 15.0445
RightArm  -51.7378 20.5547 8.63637
RightForeArm  -36.4969 12.8888 0.121829
RightHand  -0.0992696 1.67841 -1.78909
LeftUpLeg  -8.17896 0.540681 4.77142
LeftLeg  -4.87783 3.01263 -0.534865
LeftFoot  6.55482 0.588436 -3.99081
LeftToes  4.78904e-008 1.4679e-008 1.35657e-009
